<svg width="35" height="35" viewBox="0 0 35 35" fill="none" xmlns="http://www.w3.org/2000/svg">
<path d="M23.4063 10.5752C25.2657 10.5752 26.7764 9.06446 26.7764 7.20508C26.7764 5.3457 25.2657 3.83496 23.4063 3.83496C21.5469 3.83496 20.0362 5.3457 20.0362 7.20508C20.0293 9.05762 21.5469 10.5752 23.4063 10.5752ZM23.4063 5.25C24.4795 5.25 25.3545 6.125 25.3545 7.19824C25.3545 8.27149 24.4795 9.14649 23.4063 9.14649C22.333 9.14649 21.458 8.27149 21.458 7.19824C21.458 6.125 22.333 5.25 23.4063 5.25Z" fill="white"/>
<path d="M29.8525 7.19824C29.8525 3.64355 26.9609 0.751953 23.4062 0.751953C19.8516 0.751953 16.96 3.64355 16.96 7.19824C16.96 7.88184 17.1924 8.78418 17.5615 9.78223C17.5 9.78223 17.4453 9.78223 17.3838 9.78223C10.6367 9.78223 5.1543 15.2715 5.1543 22.0117C5.1543 28.752 10.6367 34.248 17.3838 34.248C24.1309 34.248 29.6133 28.7588 29.6133 22.0186C29.6133 19.291 28.6973 16.6455 27.0156 14.499C28.4512 11.874 29.8525 8.89355 29.8525 7.19824ZM23.4062 2.18066C26.1748 2.18066 28.4307 4.43652 28.4307 7.20508C28.4307 9.15332 23.9326 16.9805 23.4062 17.8145C22.4219 16.2422 18.3818 8.77051 18.3818 7.20508C18.3818 4.42969 20.6377 2.18066 23.4062 2.18066ZM28.1641 22.7295C28.0547 24.3701 27.583 25.915 26.8174 27.2754H23.4814C23.8369 25.8877 24.0557 24.3564 24.1035 22.7295H28.1641ZM21.998 27.2754H18.0947V22.7295H22.6816C22.627 24.3633 22.3809 25.9082 21.998 27.2754ZM6.59668 22.7295H10.6572C10.7051 24.3564 10.9238 25.8945 11.2793 27.2754H7.94336C7.18457 25.915 6.70605 24.3701 6.59668 22.7295ZM7.94336 16.7549H11.2793C10.9238 18.1426 10.7051 19.6738 10.6572 21.3008H6.59668C6.70605 19.6602 7.18457 18.1152 7.94336 16.7549ZM20.2549 15.333H18.0947V11.3203C18.1289 11.334 18.1699 11.3408 18.2041 11.3545C18.8057 12.6807 19.5439 14.0752 20.2549 15.333ZM16.666 11.3135V15.333H13.2412C14.082 13.2002 15.3057 11.7031 16.666 11.3135ZM16.666 16.7549V21.3008H12.0791C12.1338 19.667 12.3799 18.1221 12.7627 16.7549H16.666ZM12.0859 22.7295H16.6729V27.2754H12.7695C12.3799 25.9082 12.1406 24.3633 12.0859 22.7295ZM16.666 28.7041V32.7236C15.2988 32.334 14.082 30.8369 13.2412 28.7041H16.666ZM18.0947 32.7168V28.6973H21.5195C20.6787 30.8301 19.4619 32.3271 18.0947 32.7168ZM18.0947 21.3008V16.7549H20.7471C20.8564 16.7549 20.959 16.7275 21.0479 16.6865C21.6289 17.6709 22.1484 18.4912 22.4766 19.0107C22.5859 19.7627 22.6543 20.5352 22.6816 21.3008H18.0947ZM13.5352 11.915C12.8105 12.8174 12.1885 13.9795 11.71 15.3262H8.90039C10.0967 13.8086 11.6963 12.6191 13.5352 11.915ZM8.89355 28.7041H11.71C12.1885 30.0508 12.8037 31.2129 13.5352 32.1152C11.6963 31.4111 10.0967 30.2217 8.89355 28.7041ZM21.2324 32.1152C21.957 31.2129 22.5791 30.0508 23.0576 28.7041H25.874C24.6641 30.2217 23.0713 31.4111 21.2324 32.1152ZM28.1641 21.3008H24.1035C24.083 20.7197 24.042 20.1318 23.9805 19.5576C23.9805 19.5576 25.252 17.582 26.25 15.8525C27.3711 17.4658 28.0342 19.3525 28.1641 21.3008Z" fill="white"/>
</svg>
