<svg width="35" height="35" viewBox="0 0 35 35" fill="none" xmlns="http://www.w3.org/2000/svg">
<path d="M12.2498 10.5C12.572 10.5 12.8331 10.2388 12.8331 9.91669C12.8331 9.59453 12.572 9.33337 12.2498 9.33337C11.9277 9.33337 11.6665 9.59453 11.6665 9.91669C11.6665 10.2388 11.9277 10.5 12.2498 10.5Z" fill="white"/>
<path d="M15.1666 6.41663H9.33331C9.01113 6.41663 8.75 6.67776 8.75 6.99994V11.6666C8.75 11.8438 8.83053 12.0114 8.96896 12.1221L11.8856 14.4554C12.0987 14.6258 12.4014 14.6258 12.6144 14.4554L15.5311 12.1221C15.6695 12.0114 15.7501 11.8438 15.7501 11.6666V6.99994C15.7499 6.67776 15.4888 6.41663 15.1666 6.41663ZM14.5832 11.3862L12.2499 13.2529L9.91662 11.3862V7.58325H14.5833V11.3862H14.5832Z" fill="white"/>
<path d="M32.4961 19.2621L25.0714 11.8375C24.9576 11.7236 24.8082 11.6666 24.6589 11.6666C24.5096 11.6666 24.3603 11.7236 24.2463 11.8375L18.0835 18.0003V4.08352V4.08331V0.583516C18.0835 0.261338 17.8223 0.00020508 17.5002 0.00020508H14.0036C14.0025 0.00020508 14.0013 0 14.0002 0C13.999 0 13.9978 0.00013672 13.9967 0.00020508H10.5036C10.5025 0.00020508 10.5013 0 10.5002 0C10.499 0 10.4978 0.00013672 10.4967 0.00020508H7.00016C6.67798 0.00020508 6.41685 0.261338 6.41685 0.583516V3.92567L2.41297 10.7894C2.34352 10.9084 2.3185 11.0482 2.34222 11.1839L6.42553 34.5172C6.47441 34.7964 6.71674 35 7.00016 35H17.5002C17.7914 35 18.0321 34.7863 18.0757 34.5073L30.536 22.0471C30.5364 22.0466 30.5368 22.0464 30.5373 22.046L32.4961 20.0871C32.7239 19.8593 32.7239 19.4899 32.4961 19.2621ZM24.6589 13.075L31.2585 19.6746L30.1247 20.8084L23.5251 14.2087L24.6589 13.075ZM11.0835 3.5V1.16683H13.4168V3.5H11.0835ZM16.9168 3.5H14.5835V1.16683H16.9168V3.5ZM9.91685 1.16683V3.5H7.58354V1.16683H9.91685ZM3.52818 11.193L7.33512 4.66683H16.9168V19.4086V33.8333H7.49029L3.52818 11.193ZM18.0835 19.6502L22.7001 15.0337L29.2998 21.6333L18.0835 32.8496V19.6502Z" fill="white"/>
</svg>
