<svg width="35" height="36" viewBox="0 0 35 36" fill="none" xmlns="http://www.w3.org/2000/svg">
<path d="M31.9377 22.8854L28.9482 28.0698C28.8616 28.2253 28.7211 28.3438 28.5532 28.4029C28.3853 28.462 28.2016 28.4576 28.0367 28.3906L24.3107 26.8886C23.5368 27.4825 22.6886 27.9727 21.7877 28.3469L21.2263 32.3063C21.2015 32.4815 21.1139 32.6417 20.9797 32.7571C20.8456 32.8724 20.674 32.9351 20.4971 32.9334H14.5179C14.341 32.9351 14.1695 32.8724 14.0353 32.7571C13.9012 32.6417 13.8135 32.4815 13.7888 32.3063L13.2273 28.3469C12.3276 27.9704 11.4797 27.4803 10.7044 26.8886L6.95648 28.3906C6.79158 28.4576 6.60787 28.462 6.43998 28.4029C6.27209 28.3438 6.13161 28.2253 6.04502 28.0698L3.05544 22.8854C2.96299 22.7317 2.93047 22.5492 2.9641 22.373C2.99773 22.1968 3.09515 22.0391 3.23773 21.9302L6.38773 19.4584C6.32421 18.9748 6.29012 18.4877 6.28565 18C6.29037 17.5123 6.32446 17.0253 6.38773 16.5417L3.23773 14.0698C3.09515 13.9609 2.99773 13.8033 2.9641 13.627C2.93047 13.4508 2.96299 13.2684 3.05544 13.1146L6.04502 7.93023C6.13161 7.77472 6.27209 7.65626 6.43998 7.59716C6.60787 7.53806 6.79158 7.54241 6.95648 7.60939L10.6825 9.11148C11.4564 8.51757 12.3045 8.02731 13.2054 7.65314L13.7669 3.69377C13.7917 3.51857 13.8793 3.35835 14.0134 3.24297C14.1476 3.1276 14.3191 3.06494 14.4961 3.06669H20.4752C20.6501 3.07215 20.8179 3.13735 20.9506 3.25145C21.0832 3.36555 21.1728 3.52165 21.2044 3.69377L21.7659 7.65314C22.6656 8.02966 23.5134 8.51975 24.2888 9.11148L28.0148 7.60939C28.1797 7.54241 28.3634 7.53806 28.5313 7.59716C28.6992 7.65626 28.8397 7.77472 28.9263 7.93023L31.9159 13.1146C32.0083 13.2684 32.0408 13.4508 32.0072 13.627C31.9736 13.8033 31.8761 13.9609 31.7336 14.0698L28.6054 16.5417C28.669 17.0253 28.7031 17.5123 28.7075 18C28.7031 18.4877 28.669 18.9748 28.6054 19.4584L31.7554 21.9302C31.898 22.0391 31.9954 22.1968 32.0291 22.373C32.0627 22.5492 32.0302 22.7317 31.9377 22.8854ZM18.5721 14.2521C18.4646 14.0626 18.3088 13.9049 18.1205 13.7952C17.9322 13.6856 17.7181 13.6278 17.5002 13.6278C17.2823 13.6278 17.0683 13.6856 16.88 13.7952C16.6917 13.9049 16.5359 14.0626 16.4284 14.2521L12.8627 20.5375C12.7571 20.7249 12.7023 20.9367 12.7039 21.1518C12.7055 21.3669 12.7634 21.5778 12.8717 21.7636C12.9801 21.9495 13.1353 22.1037 13.3217 22.2109C13.5082 22.3182 13.7195 22.3747 13.9346 22.375H21.0659C21.281 22.3747 21.4923 22.3182 21.6787 22.2109C21.8652 22.1037 22.0203 21.9495 22.1287 21.7636C22.2371 21.5778 22.295 21.3669 22.2966 21.1518C22.2981 20.9367 22.2434 20.7249 22.1377 20.5375L18.5721 14.2521ZM16.0419 19.9104L17.5002 17.3511L18.9586 19.9104H16.0419Z" stroke="white" stroke-linecap="round" stroke-linejoin="round"/>
</svg>
