<svg width="35" height="35" viewBox="0 0 35 35" fill="none" xmlns="http://www.w3.org/2000/svg">
<path d="M18.3426 3.5H16.7243H8.82109C5.92397 3.5 3.56694 5.87401 3.56694 8.79201C3.56694 11.71 5.92397 14.084 8.82109 14.084H9.63517V17.6455H11.2156V20.5426H12.9244V17.6455H14.5049V14.084H16.7243H18.3426H20.266V22.4826H3.5V31.5H31.4765V24.0855V22.4827V14.0841H31.5V3.5H18.3426ZM12.7962 15.9244H11.3439V14.0841H12.7962V15.9244ZM16.6339 12.363H14.505H9.63523H8.82109C6.86618 12.363 5.27565 10.7611 5.27565 8.79201C5.27565 6.82295 6.86618 5.22108 8.82109 5.22108H16.6339V12.363H16.6339ZM29.7677 29.7789H5.20877V24.2037H29.7677V29.7789ZM29.7677 22.3644H21.9748V14.1887H29.7677V22.3644ZM29.7912 12.363H18.4331V5.22108H29.7912V12.363Z" fill="white"/>
<path d="M25.838 15.4412C24.3054 15.4412 23.0586 16.688 23.0586 18.2206C23.0586 19.7531 24.3055 21 25.838 21C27.3706 21 28.6174 19.7531 28.6174 18.2206C28.6174 16.688 27.3706 15.4412 25.838 15.4412ZM25.838 19.2628C25.2633 19.2628 24.7958 18.7952 24.7958 18.2206C24.7958 17.6459 25.2634 17.1784 25.838 17.1784C26.4127 17.1784 26.8802 17.6459 26.8802 18.2206C26.8802 18.7952 26.4127 19.2628 25.838 19.2628Z" fill="white"/>
<path d="M25.838 5.97058C24.3054 5.97058 23.0586 7.21741 23.0586 8.75002C23.0586 10.2826 24.3055 11.5294 25.838 11.5294C27.3706 11.5294 28.6174 10.2826 28.6174 8.75002C28.6174 7.21741 27.3706 5.97058 25.838 5.97058ZM25.838 9.79226C25.2633 9.79226 24.7958 9.32473 24.7958 8.75008C24.7958 8.17536 25.2634 7.70784 25.838 7.70784C26.4127 7.70784 26.8802 8.17536 26.8802 8.75008C26.8803 9.32468 26.4127 9.79226 25.838 9.79226Z" fill="white"/>
</svg>
