<svg width="22" height="24" viewBox="0 0 22 24" fill="none" xmlns="http://www.w3.org/2000/svg">
<path d="M20.375 6.14062H16.3906V5.67188C16.3906 2.69531 13.9766 0.28125 11 0.28125C8.02344 0.28125 5.60938 2.69531 5.60938 5.67188V6.14062H1.625C1.10645 6.14062 0.6875 6.55957 0.6875 7.07812V22.7812C0.6875 23.2998 1.10645 23.7188 1.625 23.7188H20.375C20.8936 23.7188 21.3125 23.2998 21.3125 22.7812V7.07812C21.3125 6.55957 20.8936 6.14062 20.375 6.14062ZM7.71875 5.67188C7.71875 3.8584 9.18652 2.39062 11 2.39062C12.8135 2.39062 14.2812 3.8584 14.2812 5.67188V6.14062H7.71875V5.67188ZM19.2031 21.6094H2.79688V8.25H5.60938V10.8281C5.60938 10.957 5.71484 11.0625 5.84375 11.0625H7.48438C7.61328 11.0625 7.71875 10.957 7.71875 10.8281V8.25H14.2812V10.8281C14.2812 10.957 14.3867 11.0625 14.5156 11.0625H16.1562C16.2852 11.0625 16.3906 10.957 16.3906 10.8281V8.25H19.2031V21.6094Z" fill="#2C2C2C"/>
</svg>
